<?xml version="1.0" standalone="no"?>
<!DOCTYPE svg PUBLIC "-//W3C//DTD SVG 20010904//EN"
 "http://www.w3.org/TR/2001/REC-SVG-20010904/DTD/svg10.dtd">
<svg version="1.0" xmlns="http://www.w3.org/2000/svg"
 width="27.000000pt" height="28.000000pt" viewBox="0 0 27.000000 28.000000"
 preserveAspectRatio="xMidYMid meet">
<metadata>
Created by potrace 1.15, written by Peter Selinger 2001-2017
</metadata>
<g transform="translate(0.000000,28.000000) scale(0.100000,-0.100000)"
fill="#000000" stroke="none">
<path d="M106 249 c-18 -21 -26 -42 -26 -68 0 -30 -8 -44 -40 -76 -31 -30 -40
-47 -40 -72 0 -51 40 -46 98 12 38 38 51 45 84 45 56 0 88 34 88 95 0 63 -31
95 -94 95 -37 0 -48 -5 -70 -31z m104 1 c12 -8 11 -10 -7 -10 -25 0 -34 -18
-21 -42 11 -22 37 -23 44 -3 10 24 24 17 24 -10 0 -14 -12 -37 -26 -52 -20
-20 -32 -24 -58 -20 -26 4 -39 -1 -65 -24 -41 -35 -53 -38 -22 -5 13 14 20 29
17 35 -4 5 -1 13 5 16 6 4 8 18 5 31 -15 59 55 115 104 84z"/>
</g>
</svg>
